#N canvas 0 0 450 300 10;
#X obj 70 270 inlet~;
#X obj 10 270 inlet;
#X obj 130 270 r \$0-read;
#X obj 130 300 faust-control \$0;
#X obj 130 330 s \$0-write;
#X obj 10 330 r \$0-in;
#X obj 10 360 enEcho4harmonizer~;
#X obj 10 390 s \$0-out;
#X obj 70 420 outlet~;
#X obj 10 420 outlet;
#X connect 1 0 3 0;
#X connect 2 0 3 0;
#X connect 3 0 4 0;
#X connect 6 0 7 0;
#X connect 1 0 9 0;
#X connect 5 0 6 0;
#X connect 0 0 6 1;
#X connect 6 1 8 0;
#X obj 10 30 hsl 128 15 0 1 0 0 \$0-enEcho4harmonizer/drywet \$0-enEcho4harmonizer/drywet drywet -2 -6 0 10 -262144 -1 -1 0 1;
#X obj 160 30 nbx 5 14 0 1 0 0 \$0-enEcho4harmonizer/drywet \$0-enEcho4harmonizer/drywet empty 0 -6 0 10 -262144 -1 -1 256;
#X obj 10 60 hsl 128 15 0 1 0 0 \$0-enEcho4harmonizer/gain \$0-enEcho4harmonizer/gain gain -2 -6 0 10 -262144 -1 -1 0 1;
#X obj 160 60 nbx 5 14 0 1 0 0 \$0-enEcho4harmonizer/gain \$0-enEcho4harmonizer/gain empty 0 -6 0 10 -262144 -1 -1 256;
#X obj 10 90 hsl 128 15 -100 100 0 0 \$0-enEcho4harmonizer/transposition1 \$0-enEcho4harmonizer/transposition1 transposition1 -2 -6 0 10 -262144 -1 -1 0 1;
#X obj 160 90 nbx 5 14 -100 100 0 0 \$0-enEcho4harmonizer/transposition1 \$0-enEcho4harmonizer/transposition1 empty 0 -6 0 10 -262144 -1 -1 256;
#X obj 10 120 hsl 128 15 -100 100 0 0 \$0-enEcho4harmonizer/transposition2 \$0-enEcho4harmonizer/transposition2 transposition2 -2 -6 0 10 -262144 -1 -1 0 1;
#X obj 160 120 nbx 5 14 -100 100 0 0 \$0-enEcho4harmonizer/transposition2 \$0-enEcho4harmonizer/transposition2 empty 0 -6 0 10 -262144 -1 -1 256;
#X obj 10 150 hsl 128 15 -100 100 0 0 \$0-enEcho4harmonizer/transposition3 \$0-enEcho4harmonizer/transposition3 transposition3 -2 -6 0 10 -262144 -1 -1 0 1;
#X obj 160 150 nbx 5 14 -100 100 0 0 \$0-enEcho4harmonizer/transposition3 \$0-enEcho4harmonizer/transposition3 empty 0 -6 0 10 -262144 -1 -1 256;
#X obj 10 180 hsl 128 15 -100 100 0 0 \$0-enEcho4harmonizer/transposition4 \$0-enEcho4harmonizer/transposition4 transposition4 -2 -6 0 10 -262144 -1 -1 0 1;
#X obj 160 180 nbx 5 14 -100 100 0 0 \$0-enEcho4harmonizer/transposition4 \$0-enEcho4harmonizer/transposition4 empty 0 -6 0 10 -262144 -1 -1 256;
#X obj 197 3 bng 15 250 50 1 \$0-init \$0-ignore empty 0 -6 0 10 -262144 -1 -1;
#X obj 217 3 tgl 15 1 \$0-active \$0-active empty 0 -6 0 10 -262144 -1 -1 1 1;
#X obj 450 10 r \$0-init;
#X obj 770 10 s \$0-in;
#X obj 930 10 s \$0-read;
#X obj 1090 10 r \$0-write;
#X msg 450 30 1;
#X obj 450 50 s \$0-active;
#X connect 28 0 29 0;
#X obj 770 30 r \$0-active;
#X msg 770 50 active \$1;
#X connect 30 0 31 0;
#X connect 31 0 25 0;
#X obj 1090 30 route active;
#X obj 1090 50 s \$0-active;
#X connect 27 0 32 0;
#X connect 32 0 33 0;
#X msg 450 70 1;
#X obj 450 90 s \$0-enEcho4harmonizer/drywet;
#X connect 24 0 34 0;
#X connect 34 0 35 0;
#X obj 770 70 r \$0-enEcho4harmonizer/drywet;
#X msg 770 90 /enEcho4harmonizer/drywet \$1;
#X connect 36 0 37 0;
#X connect 37 0 25 0;
#X obj 1090 70 route /enEcho4harmonizer/drywet;
#X obj 1090 90 s \$0-enEcho4harmonizer/drywet;
#X connect 32 1 38 0;
#X connect 38 0 39 0;
#X msg 450 110 1;
#X obj 450 130 s \$0-enEcho4harmonizer/gain;
#X connect 24 0 40 0;
#X connect 40 0 41 0;
#X obj 770 110 r \$0-enEcho4harmonizer/gain;
#X msg 770 130 /enEcho4harmonizer/gain \$1;
#X connect 42 0 43 0;
#X connect 43 0 25 0;
#X obj 1090 110 route /enEcho4harmonizer/gain;
#X obj 1090 130 s \$0-enEcho4harmonizer/gain;
#X connect 38 1 44 0;
#X connect 44 0 45 0;
#X msg 450 150 30;
#X obj 450 170 s \$0-enEcho4harmonizer/transposition1;
#X connect 24 0 46 0;
#X connect 46 0 47 0;
#X obj 770 150 r \$0-enEcho4harmonizer/transposition1;
#X msg 770 170 /enEcho4harmonizer/transposition1 \$1;
#X connect 48 0 49 0;
#X connect 49 0 25 0;
#X obj 1090 150 route /enEcho4harmonizer/transposition1;
#X obj 1090 170 s \$0-enEcho4harmonizer/transposition1;
#X connect 44 1 50 0;
#X connect 50 0 51 0;
#X msg 450 190 15;
#X obj 450 210 s \$0-enEcho4harmonizer/transposition2;
#X connect 24 0 52 0;
#X connect 52 0 53 0;
#X obj 770 190 r \$0-enEcho4harmonizer/transposition2;
#X msg 770 210 /enEcho4harmonizer/transposition2 \$1;
#X connect 54 0 55 0;
#X connect 55 0 25 0;
#X obj 1090 190 route /enEcho4harmonizer/transposition2;
#X obj 1090 210 s \$0-enEcho4harmonizer/transposition2;
#X connect 50 1 56 0;
#X connect 56 0 57 0;
#X msg 450 230 -15;
#X obj 450 250 s \$0-enEcho4harmonizer/transposition3;
#X connect 24 0 58 0;
#X connect 58 0 59 0;
#X obj 770 230 r \$0-enEcho4harmonizer/transposition3;
#X msg 770 250 /enEcho4harmonizer/transposition3 \$1;
#X connect 60 0 61 0;
#X connect 61 0 25 0;
#X obj 1090 230 route /enEcho4harmonizer/transposition3;
#X obj 1090 250 s \$0-enEcho4harmonizer/transposition3;
#X connect 56 1 62 0;
#X connect 62 0 63 0;
#X msg 450 270 -30;
#X obj 450 290 s \$0-enEcho4harmonizer/transposition4;
#X connect 24 0 64 0;
#X connect 64 0 65 0;
#X obj 770 270 r \$0-enEcho4harmonizer/transposition4;
#X msg 770 290 /enEcho4harmonizer/transposition4 \$1;
#X connect 66 0 67 0;
#X connect 67 0 25 0;
#X obj 1090 270 route /enEcho4harmonizer/transposition4;
#X obj 1090 290 s \$0-enEcho4harmonizer/transposition4;
#X connect 62 1 68 0;
#X connect 68 0 69 0;
#X coords 0 -1 1 1 235 200 1 0 0;
#X text 0 220 Generated Fri Jan 27 11:27:39 2017 by faust2pd v2.12. See http://faust.grame.fr and http://purelang.bitbucket.org.;
