#N canvas 1044 256 481 625 10;
#X obj 35 -465 enEcho4harmonizer;
#X msg 239 -758 \; pd dsp 0 \;;
#X msg 239 -800 \; pd dsp 1 \;;
#X obj 35 -774 openpanel;
#X obj 35 -798 bng 15 250 50 0 empty empty empty 0 -6 0 8 -262144 -1
-1;
#X obj 35 -722 soundfiler;
#X text 60 -800 load sound file;
#X floatatom 35 -694 15 0 0 0 - - -, f 15;
#X obj 35 -661 expr 44100 / $f1;
#X floatatom 35 -632 5 0 0 0 - - -, f 5;
#X obj 36 -600 phasor~;
#X obj 36 -565 *~;
#N canvas 0 22 450 300 (subpatch) 0;
#X array voice 433777 float 2;
#X coords 0 1 433777 -1 200 140 1 0 0;
#X restore 226 -657 graph;
#X obj 229 -511 hsl 195 20 0 1 0 0 empty empty empty -2 -6 0 8 -258113
-1 -1 0 1;
#X obj 111 -541 snapshot~;
#X obj 111 -567 metro 50;
#X obj 111 -599 tgl 15 0 empty empty empty 0 -6 0 10 -262144 -1 -1
0 1;
#X obj 111 -631 c.loadmess 1;
#X msg 35 -748 read -resize \$1 voice;
#X obj 36 -512 tabread4~ voice;
#X obj 251 -223 dac~;
#X text 282 -426 Manipulation de l'harmonizer de En Echo de Manoury
;
#X connect 0 1 20 0;
#X connect 0 1 20 1;
#X connect 3 0 18 0;
#X connect 4 0 3 0;
#X connect 5 0 7 0;
#X connect 7 0 8 0;
#X connect 7 0 11 1;
#X connect 8 0 9 0;
#X connect 9 0 10 0;
#X connect 10 0 11 0;
#X connect 10 0 14 0;
#X connect 11 0 19 0;
#X connect 14 0 13 0;
#X connect 15 0 14 0;
#X connect 16 0 15 0;
#X connect 17 0 16 0;
#X connect 18 0 5 0;
#X connect 19 0 0 1;
